<?xml version="1.0" encoding="iso-8859-1"?>
<!-- Generator: Adobe Illustrator 19.0.0, SVG Export Plug-In . SVG Version: 6.00 Build 0)  -->
<svg version="1.1" id="Capa_1" xmlns="http://www.w3.org/2000/svg" xmlns:xlink="http://www.w3.org/1999/xlink" x="0px" y="0px"
	 viewBox="0 0 512 512" style="enable-background:new 0 0 512 512;" xml:space="preserve">
<path style="fill:#FF598B;" d="M369.213,159.814c-91.389-55.601-48.533-134.078-46.693-137.34
	c2.668-4.642,2.659-10.353-0.021-14.987C319.817,2.853,314.869,0,309.515,0c-47.043,0-83.881,13.366-109.49,39.728
	c-43.759,45.045-41.729,115.152-40.862,145.09c0.096,3.316,0.179,6.182,0.179,8.31c0,22.228,3.566,42.749,6.713,60.854
	c2.028,11.668,3.779,21.744,4.09,29.665c0.334,8.482-1.215,10.424-1.281,10.503c-0.22,0.262-2.061,1.241-7.035,1.241
	c-5.674,0-9.856-1.853-13.563-6.009c-14.476-16.233-15.477-60.555-12.709-84.668c0.494-4.252-0.851-8.512-3.697-11.708
	c-2.846-3.196-6.922-5.024-11.202-5.024c-38.945,0-68.046,63.688-68.046,120.632c0,26.769,5.385,52.992,16.004,77.94
	c10.265,24.118,24.904,45.886,43.511,64.696C150.876,490.425,201.97,512,255.994,512c54.241,0,105.321-21.269,143.83-59.889
	c38.41-38.521,59.564-89.482,59.564-143.499C459.387,239.69,405.46,181.865,369.213,159.814z"/>
<path style="fill:#E6293F;" d="M459.387,308.612c0-68.922-53.927-126.747-90.174-148.798
	c-91.389-55.601-48.533-134.078-46.693-137.34c2.668-4.642,2.659-10.353-0.021-14.987C319.817,2.853,314.869,0,309.515,0
	c-19.646,0-37.505,2.34-53.517,6.976V512c54.239-0.001,105.317-21.27,143.825-59.889
	C438.234,413.591,459.387,362.629,459.387,308.612z"/>
<g>
</g>
<g>
</g>
<g>
</g>
<g>
</g>
<g>
</g>
<g>
</g>
<g>
</g>
<g>
</g>
<g>
</g>
<g>
</g>
<g>
</g>
<g>
</g>
<g>
</g>
<g>
</g>
<g>
</g>
</svg>
